HIERARCHY
ROOT reference
{
  OFFSET 0 0 0
  CHANNELS 6 Xposition Yposition Zposition Zrotation Xrotation Yrotation
  JOINT Hips
  {
    OFFSET 349.773 89.4622 219.413
    CHANNELS 3 Zrotation Xrotation Yrotation
    JOINT RightUpLeg
    {
      OFFSET -9.25229 -1.56476 -0.00486621
      CHANNELS 3 Zrotation Xrotation Yrotation
      JOINT RightLeg
      {
        OFFSET 0.0546168 -41.8841 0.068862
        CHANNELS 3 Zrotation Xrotation Yrotation
        JOINT RightFoot
        {
          OFFSET -1.63893 -40.8901 3.53979
          CHANNELS 3 Zrotation Xrotation Yrotation
          End Site
          {
            OFFSET 0 -7.69 17.5
          }
        }
      }
    }
    JOINT LeftUpLeg
    {
      OFFSET 9.30241 -1.63853 -0.0284428
      CHANNELS 3 Zrotation Xrotation Yrotation
      JOINT LeftLeg
      {
        OFFSET 0.0539686 -41.842 -0.0517406
        CHANNELS 3 Zrotation Xrotation Yrotation
        JOINT LeftFoot
        {
          OFFSET 1.12518 -42.5382 -2.5849
          CHANNELS 3 Zrotation Xrotation Yrotation
          End Site
          {
            OFFSET 0 -7.69 17.5
          }
        }
      }
    }
    JOINT Spine
    {
      OFFSET 0.0144198 14.3187 0.0981135
      CHANNELS 3 Zrotation Xrotation Yrotation
      JOINT Spine1
      {
        OFFSET 0.0112165 9.7169 0.0514987
        CHANNELS 3 Zrotation Xrotation Yrotation
        JOINT Spine2
        {
          OFFSET 0.0255827 10.1205 -0.00638435
          CHANNELS 3 Zrotation Xrotation Yrotation
          JOINT Spine3
          {
            OFFSET -0.00190646 9.72552 0.024249
            CHANNELS 3 Zrotation Xrotation Yrotation
            JOINT Neck
            {
              OFFSET -0.136438 10.3681 0.0553958
              CHANNELS 3 Zrotation Xrotation Yrotation
              JOINT Head
              {
                OFFSET 0.0264476 9.5071 0.170402
                CHANNELS 3 Zrotation Xrotation Yrotation
                End Site
                {
                  OFFSET 0 15.95 0
                }
              }
            }
            JOINT RightShoulder
            {
              OFFSET -3.1747 6.92483 0.00547946
              CHANNELS 3 Zrotation Xrotation Yrotation
              JOINT RightArm
              {
                OFFSET -12.7755 -0.0136287 0.0362428
                CHANNELS 3 Zrotation Xrotation Yrotation
                JOINT RightForeArm
                {
                  OFFSET -26.5642 -0.108975 -0.0233747
                  CHANNELS 3 Zrotation Xrotation Yrotation
                  JOINT RightHand
                  {
                    OFFSET -25.905 -0.185223 0.00356295
                    CHANNELS 3 Zrotation Xrotation Yrotation
                    JOINT RightHandThumb1
                    {
                      OFFSET -2.48905 0.190105 3.12053
                      CHANNELS 3 Zrotation Xrotation Yrotation
                      JOINT RightHandThumb2
                      {
                        OFFSET -3.68274 0 0
                        CHANNELS 3 Zrotation Xrotation Yrotation
                        JOINT RightHandThumb3
                        {
                          OFFSET -2.55832 0 0
                          CHANNELS 3 Zrotation Xrotation Yrotation
                          End Site
                          {
                            OFFSET -2.194 0 0
                          }
                        }
                      }
                    }
                    JOINT RightInHandIndex
                    {
                      OFFSET -3.22368 0.508421 1.97842
                      CHANNELS 3 Zrotation Xrotation Yrotation
                      JOINT RightHandIndex1
                      {
                        OFFSET -5.21684 -0.091368 0.999158
                        CHANNELS 3 Zrotation Xrotation Yrotation
                        JOINT RightHandIndex2
                        {
                          OFFSET -3.61937 0 0
                          CHANNELS 3 Zrotation Xrotation Yrotation
                          JOINT RightHandIndex3
                          {
                            OFFSET -2.0521 0 0
                            CHANNELS 3 Zrotation Xrotation Yrotation
                            End Site
                            {
                              OFFSET -1.805 0 0
                            }
                          }
                        }
                      }
                    }
                    JOINT RightInHandMiddle
                    {
                      OFFSET -3.38211 0.517263 0.756737
                      CHANNELS 3 Zrotation Xrotation Yrotation
                      JOINT RightHandMiddle1
                      {
                        OFFSET -5.17411 -0.084 0.313895
                        CHANNELS 3 Zrotation Xrotation Yrotation
                        JOINT RightHandMiddle2
                        {
                          OFFSET -3.94947 0 0
                          CHANNELS 3 Zrotation Xrotation Yrotation
                          JOINT RightHandMiddle3
                          {
                            OFFSET -2.47579 0 0
                            CHANNELS 3 Zrotation Xrotation Yrotation
                            End Site
                            {
                              OFFSET -1.975 0 0
                            }
                          }
                        }
                      }
                    }
                    JOINT RightInHandRing
                    {
                      OFFSET -3.36516 0.537895 -0.128947
                      CHANNELS 3 Zrotation Xrotation Yrotation
                      JOINT RightHandRing1
                      {
                        OFFSET -4.63474 -0.022105 -0.478947
                        CHANNELS 3 Zrotation Xrotation Yrotation
                        JOINT RightHandRing2
                        {
                          OFFSET -3.44238 0 0
                          CHANNELS 3 Zrotation Xrotation Yrotation
                          JOINT RightHandRing3
                          {
                            OFFSET -2.3881 0 0
                            CHANNELS 3 Zrotation Xrotation Yrotation
                            End Site
                            {
                              OFFSET -1.857 0 0
                            }
                          }
                        }
                      }
                    }
                    JOINT RightInHandPinky
                    {
                      OFFSET -3.16105 0.469368 -1.20179
                      CHANNELS 3 Zrotation Xrotation Yrotation
                      JOINT RightHandPinky1
                      {
                        OFFSET -4.14105 -0.022105 -1.09053
                        CHANNELS 3 Zrotation Xrotation Yrotation
                        JOINT RightHandPinky2
                        {
                          OFFSET -2.75653 0 0
                          CHANNELS 3 Zrotation Xrotation Yrotation
                          JOINT RightHandPinky3
                          {
                            OFFSET -1.74189 0 0
                            CHANNELS 3 Zrotation Xrotation Yrotation
                            End Site
                            {
                              OFFSET -1.645 0 0
                            }
                          }
                        }
                      }
                    }
                  }
                }
              }
            }
            JOINT LeftShoulder
            {
              OFFSET 3.23079 6.93624 -0.032633
              CHANNELS 3 Zrotation Xrotation Yrotation
              JOINT LeftArm
              {
                OFFSET 12.8235 -0.00564763 -0.0637926
                CHANNELS 3 Zrotation Xrotation Yrotation
                JOINT LeftForeArm
                {
                  OFFSET 26.4641 -0.00020372 -0.0407631
                  CHANNELS 3 Zrotation Xrotation Yrotation
                  JOINT LeftHand
                  {
                    OFFSET 25.9912 -0.0207868 -0.0178714
                    CHANNELS 3 Zrotation Xrotation Yrotation
                    JOINT LeftHandThumb1
                    {
                      OFFSET 2.48905 0.190105 3.12053
                      CHANNELS 3 Zrotation Xrotation Yrotation
                      JOINT LeftHandThumb2
                      {
                        OFFSET 3.68274 0 0
                        CHANNELS 3 Zrotation Xrotation Yrotation
                        JOINT LeftHandThumb3
                        {
                          OFFSET 2.55832 0 0
                          CHANNELS 3 Zrotation Xrotation Yrotation
                          End Site
                          {
                            OFFSET 2.194 0 0
                          }
                        }
                      }
                    }
                    JOINT LeftInHandIndex
                    {
                      OFFSET 3.22368 0.508421 1.97842
                      CHANNELS 3 Zrotation Xrotation Yrotation
                      JOINT LeftHandIndex1
                      {
                        OFFSET 5.21684 -0.091368 0.999158
                        CHANNELS 3 Zrotation Xrotation Yrotation
                        JOINT LeftHandIndex2
                        {
                          OFFSET 3.61937 0 0
                          CHANNELS 3 Zrotation Xrotation Yrotation
                          JOINT LeftHandIndex3
                          {
                            OFFSET 2.0521 0 0
                            CHANNELS 3 Zrotation Xrotation Yrotation
                            End Site
                            {
                              OFFSET 1.805 0 0
                            }
                          }
                        }
                      }
                    }
                    JOINT LeftInHandMiddle
                    {
                      OFFSET 3.38211 0.517263 0.756737
                      CHANNELS 3 Zrotation Xrotation Yrotation
                      JOINT LeftHandMiddle1
                      {
                        OFFSET 5.17411 -0.084 0.313895
                        CHANNELS 3 Zrotation Xrotation Yrotation
                        JOINT LeftHandMiddle2
                        {
                          OFFSET 3.94947 0 0
                          CHANNELS 3 Zrotation Xrotation Yrotation
                          JOINT LeftHandMiddle3
                          {
                            OFFSET 2.47579 0 0
                            CHANNELS 3 Zrotation Xrotation Yrotation
                            End Site
                            {
                              OFFSET 1.975 0 0
                            }
                          }
                        }
                      }
                    }
                    JOINT LeftInHandRing
                    {
                      OFFSET 3.36516 0.537895 -0.128947
                      CHANNELS 3 Zrotation Xrotation Yrotation
                      JOINT LeftHandRing1
                      {
                        OFFSET 4.63474 -0.022105 -0.478947
                        CHANNELS 3 Zrotation Xrotation Yrotation
                        JOINT LeftHandRing2
                        {
                          OFFSET 3.44238 0 0
                          CHANNELS 3 Zrotation Xrotation Yrotation
                          JOINT LeftHandRing3
                          {
                            OFFSET 2.3881 0 0
                            CHANNELS 3 Zrotation Xrotation Yrotation
                            End Site
                            {
                              OFFSET 1.857 0 0
                            }
                          }
                        }
                      }
                    }
                    JOINT LeftInHandPinky
                    {
                      OFFSET 3.16105 0.469368 -1.20179
                      CHANNELS 3 Zrotation Xrotation Yrotation
                      JOINT LeftHandPinky1
                      {
                        OFFSET 4.14105 -0.022105 -1.09053
                        CHANNELS 3 Zrotation Xrotation Yrotation
                        JOINT LeftHandPinky2
                        {
                          OFFSET 2.75653 0 0
                          CHANNELS 3 Zrotation Xrotation Yrotation
                          JOINT LeftHandPinky3
                          {
                            OFFSET 1.74189 0 0
                            CHANNELS 3 Zrotation Xrotation Yrotation
                            End Site
                            {
                              OFFSET 1.645 0 0
                            }
                          }
                        }
                      }
                    }
                  }
                }
              }
            }
          }
        }
      }
    }
  }
}
MOTION
Frames: 2
Frame Time: 0.00833333
1.050000000000000000e+03 0.000000000000000000e+00 0.000000000000000000e+00 0.000000000000000000e+00 0.000000000000000000e+00 0.000000000000000000e+00 1.993799917284300349e+01 1.589056773952177792e+01 -6.890529812673506171e+01 -8.948088374381661936e-01 -4.160387110295900470e+01 -7.202485044053650753e+00 -2.754204055261679329e+00 2.225820476958911343e+01 -1.376110347353360730e+01 1.315300835141080249e+01 3.881048046231321713e+00 2.291973123542044988e+01 1.260818332507147943e+01 -3.833404278211109784e+01 -6.100815607896105774e+00 7.923130579206496549e-01 3.664867627756419921e+01 6.401919270915241711e+00 -1.006387106560801392e+01 -1.496849046438917163e+01 -1.559765135223813459e+01 -7.592880196597086018e-01 6.721146833359613382e+00 -9.336428667514127255e-01 -1.711185559519417532e-01 1.453592404914230585e+00 -2.275856904500761502e-01 -2.775281139312375522e-01 2.238317465467099865e+00 -4.827486570505818975e-01 -3.667850507782784986e-01 -1.054702284291157421e-01 8.522305436682071633e-01 -3.968799066453709834e-01 -1.914080297996333835e+00 1.164109736411195684e+01 -6.513765793081184086e+00 3.349772192303924534e+00 9.818946230078351434e+00 1.965893955675608318e+00 -6.044472046055267000e+00 1.123433622446507130e+01 6.967831412368565225e+01 -1.206006747241732668e+01 2.865555581097529725e+01 2.148753700544050815e+01 -2.620688762976924124e+01 7.797293081484235699e+01 3.424046779610769420e+00 -1.907003709551764103e+01 1.745408232517215552e+01 2.818400000000000105e+01 1.072940000000000005e+01 1.915919999999999845e+01 -2.123594090222126185e-15 -8.470098342825223705e-15 -1.000000000000000000e+01 -4.936856062957725335e-15 -6.375445473902710175e-15 -1.000000000000000000e+01 -4.581395046018051781e-15 3.996924215487435480e-16 1.292281753376384872e-15 1.998179999999999978e+01 8.718970000000000331e-01 2.396399999999999864e+00 2.400000000000000000e+01 -4.761645811588285783e-15 -1.142117031219507421e-14 2.000000000000000000e+01 -8.802477013369552256e-16 -6.565643026003504611e-15 -4.581395046018051781e-15 3.996924215487435480e-16 1.292281753376384872e-15 2.000000000000000000e+01 4.272456343479173872e-15 3.447000303468575003e-15 2.400000000000000000e+01 -4.583333302937309842e-15 9.344521263777637548e-16 2.000000000000000000e+01 3.028190637613681059e-15 -5.094797869632464444e-15 -4.581395046018051781e-15 3.996924215487435480e-16 1.292281753376384872e-15 1.997479999999999833e+01 -1.025649999999999951e+00 -2.819380000000000219e+00 2.400000000000000000e+01 -1.447307157052197943e-15 1.108661751783554863e-14 2.000000000000000000e+01 -1.478411085992649018e-15 -1.979723215299281171e-15 -4.581395046018051781e-15 3.996924215487435480e-16 1.292281753376384872e-15 1.978150000000000119e+01 -3.009479999999999933e+00 -8.305149999999999366e+00 2.400000000000000000e+01 -4.870712722172840963e-16 -9.392051922212429522e-15 2.000000000000000000e+01 -3.069605923176426278e-16 4.133151053288502691e-15 7.861326402567236471e+00 -1.087454377066574729e+01 -3.283009801721101439e+01 -2.446146243878103022e+01 1.887292681581580212e+01 -9.035682768995123126e+01 5.404344182398721586e+01 -3.132623356504556611e+01 1.748245947893824592e+01 -3.630516725701802017e+01 -8.105192373695008001e+00 -3.574322728392417048e+00 -2.818400000000000105e+01 1.072940000000000005e+01 -1.915919999999999845e+01 4.824044336213875691e-15 4.186214544218395637e-15 1.000000000000000000e+01 3.007801687068693630e-15 3.649410915284109936e-15 1.000000000000000000e+01 -2.441878681694345816e-15 -3.866484561607943500e-15 -1.898068195866875724e-15 -1.998179999999999978e+01 8.718970000000000331e-01 -2.396399999999999864e+00 -2.400000000000000000e+01 -1.602550806746605325e-16 2.745488417464795758e-15 -2.000000000000000000e+01 1.613026516856230671e-15 -6.583774079988895349e-15 -2.441878681694345816e-15 -3.866484561607943500e-15 -1.898068195866875724e-15 -2.000000000000000000e+01 7.180479632059702753e-15 3.636981441324297012e-15 -2.400000000000000000e+01 4.238064875823305720e-16 1.507822382651721066e-14 -2.000000000000000000e+01 -1.020238486858277494e-15 -8.588936348230062130e-16 -2.441878681694345816e-15 -3.866484561607943500e-15 -1.898068195866875724e-15 -1.997479999999999833e+01 -1.025649999999999951e+00 2.819380000000000219e+00 -2.400000000000000000e+01 -2.408113356907201188e-15 -1.441680392108620583e-14 -2.000000000000000000e+01 1.989836821735182970e-15 1.092837427976061202e-14 -2.441878681694345816e-15 -3.866484561607943500e-15 -1.898068195866875724e-15 -1.978150000000000119e+01 -3.009479999999999933e+00 8.305149999999999366e+00 -2.400000000000000000e+01 -7.141715102465145077e-15 2.394988666079334140e-14 -2.000000000000000000e+01 -7.593220157812578567e-15 2.041262720194345848e-14
1.050000000000000000e+03 0.000000000000000000e+00 0.000000000000000000e+00 0.000000000000000000e+00 0.000000000000000000e+00 0.000000000000000000e+00 1.990094377974150319e+01 1.593640875352410902e+01 -6.857519135545695121e+01 -1.034440422340045629e+00 -4.148591935516610363e+01 -7.297225165554614534e+00 -2.700893490800015506e+00 2.226458672894323598e+01 -1.385192410477161573e+01 1.316084195120183331e+01 3.787188131243367728e+00 2.275644848495162265e+01 1.245937510886813016e+01 -3.832467417972343071e+01 -6.225392273976531499e+00 8.815031827757575655e-01 3.650534177131945768e+01 6.254358028287636984e+00 -1.009461262912603630e+01 -1.489422826498406138e+01 -1.570393215398580544e+01 -7.590636250462310386e-01 6.692365124013336164e+00 -7.272202338136484201e-01 -1.705187204275829815e-01 1.448176140543557588e+00 -1.738691405413828051e-01 -2.767443284284738514e-01 2.230360205532966322e+00 -4.008017008932691638e-01 -3.608388021172965199e-01 -1.046360571922047289e-01 8.306428771213725248e-01 -3.819431391746839211e-01 -1.908702007149682078e+00 1.140990697582707369e+01 -6.405973447754112371e+00 3.367331527445426964e+00 9.536463695382792594e+00 1.867407364547927884e+00 -6.097640327191412801e+00 1.137185296538168089e+01 6.952977103145244087e+01 -1.192308296688495517e+01 2.897309255909007319e+01 2.124325338371421878e+01 -2.599162514622862119e+01 7.780422285579921038e+01 3.550509532490218945e+00 -1.897299101776969010e+01 1.732895546223870653e+01 2.818400000000000105e+01 1.072940000000000005e+01 1.915919999999999845e+01 -2.132308408255087031e-15 -8.457691543773090251e-15 -1.000000000000000000e+01 -4.915005401875617981e-15 -6.345528024795663676e-15 -1.000000000000000000e+01 -4.559275759453725831e-15 4.001353462496120575e-16 1.283429859846106310e-15 1.998179999999999978e+01 8.718970000000000331e-01 2.396399999999999864e+00 2.400000000000000000e+01 -4.714473850997885738e-15 -1.133362271297661049e-14 2.000000000000000000e+01 -8.660722298082258261e-16 -6.499513974318833451e-15 -4.559275759453725831e-15 4.001353462496120575e-16 1.283429859846106310e-15 2.000000000000000000e+01 4.251670812548025233e-15 3.414478921829773535e-15 2.400000000000000000e+01 -4.531124451920633476e-15 9.692398293759218619e-16 2.000000000000000000e+01 3.020957805562431484e-15 -5.108721830412797875e-15 -4.559275759453725831e-15 4.001353462496120575e-16 1.283429859846106310e-15 1.997479999999999833e+01 -1.025649999999999951e+00 -2.819380000000000219e+00 2.400000000000000000e+01 -1.479156671931634756e-15 1.109863172755444120e-14 2.000000000000000000e+01 -1.458294868009045817e-15 -1.948262117340855834e-15 -4.559275759453725831e-15 4.001353462496120575e-16 1.283429859846106310e-15 1.978150000000000119e+01 -3.009479999999999933e+00 -8.305149999999999366e+00 2.400000000000000000e+01 -4.700601407856894521e-16 -9.353790548244893334e-15 2.000000000000000000e+01 -3.124974793327229817e-16 4.104932957120317387e-15 7.828953806467226606e+00 -1.088557497103425575e+01 -3.275270294160872453e+01 -2.477704391548461160e+01 1.873677599951605188e+01 -9.006580206173427428e+01 5.334747452652831612e+01 -3.141081364509986429e+01 1.638825701302780402e+01 -3.626132008233874160e+01 -8.083915969472492691e+00 -3.711519281479045418e+00 -2.818400000000000105e+01 1.072940000000000005e+01 -1.915919999999999845e+01 4.766780326925658047e-15 4.225124753369625910e-15 1.000000000000000000e+01 3.006053181782788792e-15 3.678514449995675345e-15 1.000000000000000000e+01 -2.422201384861529216e-15 -3.868688741741570180e-15 -1.891802211965732603e-15 -1.998179999999999978e+01 8.718970000000000331e-01 -2.396399999999999864e+00 -2.400000000000000000e+01 -1.510284937543835875e-16 2.753178647179517515e-15 -2.000000000000000000e+01 1.608472669744618505e-15 -6.568808954992148991e-15 -2.422201384861529216e-15 -3.868688741741570180e-15 -1.891802211965732603e-15 -2.000000000000000000e+01 7.144274142945573952e-15 3.617563937615374100e-15 -2.400000000000000000e+01 4.149105985294995344e-16 1.511339789766416254e-14 -2.000000000000000000e+01 -1.059717002564089366e-15 -8.045583309908038805e-16 -2.422201384861529216e-15 -3.868688741741570180e-15 -1.891802211965732603e-15 -1.997479999999999833e+01 -1.025649999999999951e+00 2.819380000000000219e+00 -2.400000000000000000e+01 -2.404583699248159786e-15 -1.434245541102723888e-14 -2.000000000000000000e+01 1.962763774050912451e-15 1.096081050519547798e-14 -2.422201384861529216e-15 -3.868688741741570180e-15 -1.891802211965732603e-15 -1.978150000000000119e+01 -3.009479999999999933e+00 8.305149999999999366e+00 -2.400000000000000000e+01 -7.123304757827070344e-15 2.393359399575154397e-14 -2.000000000000000000e+01 -7.620453177661879805e-15 2.041957282247349003e-14
